<?xml version="1.0" encoding="iso-8859-1"?>
<!-- Generator: Adobe Illustrator 18.1.1, SVG Export Plug-In . SVG Version: 6.00 Build 0)  -->
<!DOCTYPE svg PUBLIC "-//W3C//DTD SVG 1.1//EN" "http://www.w3.org/Graphics/SVG/1.1/DTD/svg11.dtd">
<svg version="1.1" xmlns="http://www.w3.org/2000/svg" xmlns:xlink="http://www.w3.org/1999/xlink" x="0px" y="0px"
	 viewBox="0 0 454 340" style="enable-background:new 0 0 454 340;" xml:space="preserve">
<g id="&#x57FA;&#x672C;&#x306E;&#x67A0;&#x306A;&#x3069;">
	<g>
		<path d="M3.422-14.983h5.265v0.636L4.933-6h-1.02l3.754-8.131v-0.024H3.422V-14.983z"/>
		<path d="M15.179-6H9.866v-0.612l0.875-0.923c2.135-2.159,3.214-3.466,3.214-4.929c0-0.959-0.419-1.847-1.715-1.847
			c-0.72,0-1.367,0.396-1.799,0.744l-0.336-0.696c0.552-0.492,1.367-0.875,2.327-0.875c1.811,0,2.531,1.319,2.531,2.555
			c0,1.691-1.188,3.13-3.046,5.001L11.209-6.84v0.024h3.97V-6z"/>
		<path d="M22.151-7.619c0,0.528,0.024,1.175,0.048,1.619h-0.888l-0.048-1.115h-0.036c-0.335,0.684-1.079,1.259-2.135,1.259
			c-1.511,0-2.687-1.308-2.687-3.322c0-2.207,1.295-3.502,2.818-3.502c0.959,0,1.607,0.468,1.907,1.007h0.024v-3.922h0.996V-7.619z
			 M21.155-9.922c0-1.307-0.923-1.955-1.763-1.955c-1.235,0-1.967,1.151-1.967,2.651c0,1.379,0.647,2.555,1.931,2.555
			c1.079,0,1.799-0.948,1.799-1.991V-9.922z"/>
		<path d="M25.057-11.433c0.456-0.804,1.211-1.259,2.231-1.259c1.547,0,2.663,1.332,2.663,3.334c0,2.398-1.403,3.502-2.843,3.502
			c-0.863,0-1.583-0.396-1.967-1.043h-0.024v3.574h-0.996v-7.112c0-0.852-0.024-1.511-0.048-2.111h0.899l0.06,1.115H25.057z
			 M25.117-8.603c0,1.271,0.947,1.943,1.835,1.943c1.283,0,1.991-1.104,1.991-2.663c0-1.355-0.684-2.555-1.955-2.555
			c-1.116,0-1.871,1.08-1.871,2.027V-8.603z"/>
		<path d="M31.945-13.688c-0.384,0-0.647-0.3-0.647-0.684c0-0.372,0.276-0.671,0.66-0.671c0.396,0,0.647,0.3,0.647,0.671
			C32.605-13.952,32.329-13.688,31.945-13.688z M32.449-6h-0.996v-6.537h0.996V-6z"/>
		<path d="M37.429-14.504c0.899-0.036,8.288-0.563,9.847-0.576l0.012,0.899c-0.156-0.012-0.3-0.012-0.443-0.012
			c-0.696,0-1.283,0.12-2.051,0.612c-1.799,1.079-3.538,3.01-3.538,4.557c0,1.679,1.175,2.675,4.149,3.059l-0.396,0.839
			c-3.406-0.492-4.678-1.763-4.678-3.898c0-1.691,1.667-3.742,3.862-5.121c-1.319,0.096-4.857,0.36-6.404,0.504
			c-0.036,0.096-0.168,0.18-0.264,0.192L37.429-14.504z M45.201-12.141c0.576,0.432,1.259,1.139,1.631,1.655l-0.456,0.372
			c-0.336-0.528-1.067-1.271-1.583-1.667L45.201-12.141z M46.496-13.196c0.588,0.432,1.284,1.127,1.631,1.655l-0.456,0.36
			c-0.324-0.479-1.019-1.223-1.583-1.655L46.496-13.196z"/>
		<path d="M51.204-11.769c0.288,0.456,1.056,1.787,1.235,2.123l-0.432,0.6c-0.144-0.384-0.504-1.151-0.804-1.751v5.793h-0.719
			v-5.757c-0.36,1.331-0.816,2.626-1.308,3.43c-0.084-0.204-0.276-0.492-0.396-0.66c0.647-1.032,1.331-3.022,1.631-4.726h-1.403
			v-0.744h1.476v-2.674l0.947,0.06c-0.012,0.084-0.072,0.144-0.228,0.168v2.447h1.14v0.744h-1.14V-11.769z M54.814-9.575
			c0.527,0.78,1.103,1.823,1.331,2.471L55.522-6.78c-0.06-0.167-0.144-0.372-0.24-0.587C54.227-6.96,53.171-6.564,52.476-6.3
			c-0.012,0.096-0.06,0.156-0.132,0.192l-0.372-0.839l0.792-0.24v-8.467h2.843v5.169h-2.135v3.058
			c0.492-0.156,1.007-0.336,1.535-0.516c-0.24-0.468-0.516-0.959-0.78-1.367L54.814-9.575z M54.91-14.959h-1.439v1.535h1.439
			V-14.959z M53.471-11.194h1.439v-1.559h-1.439V-11.194z M58.46-6.192c0,0.456,0.06,0.504,0.288,0.504h0.36
			c0.276,0,0.384-0.12,0.42-0.396c0.024-0.204,0.024-0.636,0.036-1.211c0.144,0.12,0.384,0.24,0.576,0.3
			c-0.036,1.451-0.072,1.919-0.983,1.919h-0.552c-0.863,0-0.863-0.503-0.863-1.211v-1.691c-0.647,1.199-1.571,2.231-2.915,2.999
			c-0.096-0.156-0.324-0.408-0.468-0.552c2.027-1.104,3.035-2.854,3.574-4.905H55.93v-0.696h0.66v-3.826h-0.552v-0.696h3.886v0.696
			h-0.66c-0.084,1.307-0.204,2.603-0.456,3.826h1.235v0.696h-1.391c-0.072,0.3-0.144,0.587-0.24,0.863L58.7-9.551
			c-0.012,0.072-0.084,0.132-0.24,0.156V-6.192z M57.249-11.134h0.839c0.252-1.211,0.36-2.506,0.444-3.826h-1.283V-11.134z"/>
		<path d="M61.261-13.544c0.899,0,1.715-0.012,2.363-0.144c0.012-0.312,0.072-1.811,0.072-2.159l1.188,0.108
			c-0.012,0.132-0.12,0.204-0.324,0.228c-0.048,0.516-0.072,1.115-0.096,1.691l0.492,0.168c-0.204,0.396-0.384,1.02-0.564,1.607
			c0,0.156-0.012,0.324-0.012,0.479c1.235-1.08,2.735-1.751,4.018-1.751c1.811,0,2.699,1.235,2.699,3.478
			c0,0.768-0.096,1.487-0.312,2.123c0.36,0.312,0.755,0.708,1.043,1.043l-0.552,0.708C71.06-6.228,70.7-6.6,70.376-6.9
			c-0.468,0.815-1.175,1.391-2.399,1.391c-1.127,0-1.943-0.708-1.943-1.643c0-0.996,0.875-1.679,1.967-1.679
			c0.756,0,1.427,0.252,2.027,0.636c0.156-0.479,0.216-1.043,0.216-1.655c0-1.619-0.636-2.662-1.955-2.662
			c-1.115,0-2.65,0.647-3.934,1.847c0,0.78-0.012,4.618,0,5.481h-0.827c0.012-1.055,0.024-3.598,0.036-5.085h-0.012
			c-0.3,0.695-1.008,1.919-2.027,3.022l-0.504-0.743c1.067-1.08,1.943-2.459,2.542-3.934l0.036-0.947
			c-0.444,0.072-1.295,0.132-2.339,0.132V-13.544z M69.801-7.475c-0.552-0.432-1.188-0.684-1.787-0.684
			c-0.672,0-1.271,0.396-1.271,0.947c0,0.612,0.588,0.996,1.271,0.996C69.081-6.216,69.585-6.972,69.801-7.475z"/>
		<path d="M74.209-8.999c-0.024,0.084-0.096,0.12-0.228,0.12c-0.144,1.007-0.396,2.171-0.731,2.866
			c-0.144-0.096-0.408-0.204-0.576-0.288c0.324-0.672,0.552-1.823,0.684-2.915L74.209-8.999z M82.053-9.334v3.274
			c0.419,0.144,0.587,0.144,2.086,0.144c-0.096,0.18-0.204,0.516-0.228,0.72h-0.924c-1.223,0-2.254-0.396-2.914-2.123
			c-0.18,0.899-0.456,1.703-0.912,2.315c-0.096-0.156-0.324-0.36-0.504-0.456c0.84-1.175,0.996-3.334,1.043-5.337l0.924,0.084
			c-0.012,0.084-0.084,0.132-0.24,0.144c-0.024,0.611-0.06,1.247-0.12,1.871c0.252,1.116,0.624,1.799,1.079,2.207v-6.009h-1.979
			v-0.372c-0.048,0.036-0.108,0.048-0.204,0.048c-0.18,0.563-0.408,1.127-0.671,1.667l0.24,0.06
			c-0.012,0.072-0.072,0.132-0.216,0.144v5.973h-0.696v-4.978c-0.228,0.36-0.479,0.696-0.731,0.984
			c-0.084-0.156-0.276-0.468-0.408-0.612c0.048-0.06,0.108-0.12,0.156-0.192l-0.42,0.192c-0.048-0.168-0.108-0.372-0.192-0.588
			l-0.923,0.06v5.133h-0.708v-5.097c-0.564,0.036-1.067,0.06-1.475,0.072c-0.012,0.084-0.096,0.132-0.168,0.156l-0.216-0.899h0.743
			c0.264-0.348,0.552-0.768,0.84-1.211c-0.36-0.54-0.948-1.223-1.475-1.727l0.396-0.527l0.372,0.348
			c0.348-0.696,0.731-1.595,0.947-2.255l0.864,0.324c-0.036,0.084-0.132,0.12-0.252,0.108c-0.276,0.672-0.72,1.619-1.116,2.279
			c0.252,0.276,0.48,0.552,0.66,0.804c0.444-0.731,0.84-1.487,1.14-2.111l0.828,0.396c-0.036,0.072-0.132,0.108-0.264,0.108
			c-0.552,1.007-1.427,2.422-2.207,3.454l1.763-0.024c-0.18-0.396-0.396-0.804-0.611-1.151l0.587-0.24
			c0.444,0.684,0.875,1.571,1.056,2.195c0.624-0.839,1.187-2.027,1.547-3.238l0.816,0.276v-0.288h4.665v0.731h-1.979v2.447h1.847
			v0.72H82.053z M76.392-6.624c-0.084-0.66-0.384-1.667-0.696-2.423l0.588-0.18c0.336,0.768,0.636,1.751,0.744,2.411L76.392-6.624z
			 M79.21-15.787c-0.036,0.072-0.12,0.12-0.264,0.096c-0.432,0.996-1.104,2.111-1.715,2.819c-0.12-0.12-0.372-0.372-0.516-0.492
			c0.576-0.636,1.211-1.715,1.607-2.735L79.21-15.787z M80.361-16.027c0.384,0.744,0.708,1.715,0.816,2.363l-0.696,0.24
			c-0.084-0.648-0.408-1.643-0.756-2.387L80.361-16.027z M81.98-13.568c0.276-0.671,0.612-1.787,0.78-2.555l0.959,0.288
			c-0.036,0.084-0.12,0.12-0.252,0.132c-0.204,0.684-0.576,1.727-0.888,2.363L81.98-13.568z"/>
		<path d="M90.564-6v-8.047H90.54l-1.475,0.852l-0.24-0.744l1.859-1.043h0.852V-6H90.564z"/>
		<path d="M99.958-6h-5.313v-0.612l0.875-0.923c2.135-2.159,3.214-3.466,3.214-4.929c0-0.959-0.419-1.847-1.715-1.847
			c-0.72,0-1.367,0.396-1.799,0.744l-0.336-0.696c0.552-0.492,1.367-0.875,2.327-0.875c1.811,0,2.531,1.319,2.531,2.555
			c0,1.691-1.188,3.13-3.046,5.001L95.989-6.84v0.024h3.97V-6z"/>
		<path d="M101.149-10.462c0-3.143,1.224-4.666,2.903-4.666c1.703,0,2.746,1.607,2.746,4.545c0,3.118-1.091,4.726-2.878,4.726
			C102.289-5.856,101.149-7.464,101.149-10.462z M105.791-10.534c0-2.243-0.54-3.79-1.799-3.79c-1.067,0-1.823,1.427-1.823,3.79
			c0,2.363,0.66,3.862,1.787,3.862C105.287-6.672,105.791-8.399,105.791-10.534z"/>
		<path d="M117.164-6h-0.983v-3.778c0-1.271-0.456-2.087-1.439-2.087c-0.804,0-1.535,0.755-1.535,1.751V-6h-0.983v-4.03
			c0-1.043-0.444-1.835-1.367-1.835c-0.852,0-1.607,0.839-1.607,1.859V-6h-0.983v-4.857c0-0.671-0.024-1.151-0.048-1.691h0.875
			l0.06,1.055h0.036c0.36-0.635,0.959-1.199,1.991-1.199c0.852,0,1.511,0.528,1.787,1.307h0.024
			c0.432-0.779,1.091-1.307,2.099-1.307c0.804,0,2.075,0.516,2.075,2.758V-6z"/>
		<path d="M128-6h-0.983v-3.778c0-1.271-0.456-2.087-1.439-2.087c-0.804,0-1.535,0.755-1.535,1.751V-6h-0.983v-4.03
			c0-1.043-0.444-1.835-1.367-1.835c-0.852,0-1.607,0.839-1.607,1.859V-6h-0.983v-4.857c0-0.671-0.024-1.151-0.048-1.691h0.875
			l0.06,1.055h0.036c0.36-0.635,0.959-1.199,1.991-1.199c0.852,0,1.511,0.528,1.787,1.307h0.024
			c0.432-0.779,1.091-1.307,2.099-1.307c0.804,0,2.075,0.516,2.075,2.758V-6z"/>
		<path d="M135.036-11.757c0.348,0.444,1.283,1.787,1.499,2.111l-0.468,0.647c-0.18-0.396-0.647-1.211-1.031-1.823v5.817h-0.768
			v-5.853c-0.42,1.379-0.996,2.734-1.571,3.55c-0.108-0.216-0.3-0.528-0.444-0.708c0.768-1.043,1.559-3.01,1.943-4.725h-1.679
			v-0.756h1.751v-2.638l0.995,0.072c-0.012,0.072-0.072,0.132-0.228,0.156v2.411h1.463v0.516h1.667V-14.3h-1.427v-0.672h1.427
			v-1.151l0.996,0.06c-0.012,0.084-0.072,0.144-0.228,0.156v0.936h2.063v-1.151l0.996,0.06c-0.012,0.084-0.072,0.144-0.228,0.156
			v0.936h1.547v0.672h-1.547v1.319h1.823v0.708h-3.238v0.923h2.782v4.066h-6.225v-4.066h2.687v-0.923h-3.298v-0.468h-1.259V-11.757z
			 M139.305-6.516c-0.048,0.036-0.12,0.072-0.228,0.084c-0.516,0.492-1.559,1.115-2.411,1.463c-0.132-0.156-0.372-0.408-0.54-0.551
			c0.863-0.336,1.883-0.936,2.387-1.439L139.305-6.516z M137.638-10.738v1.115h1.955v-1.115H137.638z M137.638-9.023v1.127h1.955
			v-1.127H137.638z M138.933-14.3v1.319h2.063V-14.3H138.933z M142.387-10.738h-2.039v1.115h2.039V-10.738z M142.387-7.895v-1.127
			h-2.039v1.127H142.387z M143.023-4.957c-0.503-0.42-1.523-1.08-2.303-1.523l0.576-0.456c0.78,0.42,1.811,1.043,2.339,1.463
			L143.023-4.957z"/>
		<path d="M150.071-6v-8.047h-0.024l-1.475,0.852l-0.24-0.744l1.859-1.043h0.852V-6H150.071z"/>
		<path d="M159.142-14.983v0.827h-3.227l-0.372,2.543c0.192-0.024,0.384-0.048,0.695-0.048c1.595,0,3.022,0.947,3.022,2.758
			c0,1.775-1.319,3.046-3.094,3.046c-0.899,0-1.655-0.264-2.063-0.528l0.288-0.78c0.336,0.228,0.996,0.504,1.775,0.504
			c1.127,0,2.099-0.828,2.087-2.123c0-1.235-0.792-2.099-2.471-2.099c-0.479,0-0.852,0.036-1.151,0.084l0.563-4.186H159.142z"/>
		<path d="M160.657-10.462c0-3.143,1.223-4.666,2.902-4.666c1.703,0,2.746,1.607,2.746,4.545c0,3.118-1.091,4.726-2.878,4.726
			C161.796-5.856,160.657-7.464,160.657-10.462z M165.298-10.534c0-2.243-0.54-3.79-1.799-3.79c-1.067,0-1.823,1.427-1.823,3.79
			c0,2.363,0.66,3.862,1.787,3.862C164.794-6.672,165.298-8.399,165.298-10.534z"/>
		<path d="M176.671-6h-0.984v-3.778c0-1.271-0.456-2.087-1.439-2.087c-0.804,0-1.535,0.755-1.535,1.751V-6h-0.983v-4.03
			c0-1.043-0.444-1.835-1.367-1.835c-0.852,0-1.607,0.839-1.607,1.859V-6h-0.983v-4.857c0-0.671-0.024-1.151-0.048-1.691h0.875
			l0.06,1.055h0.036c0.36-0.635,0.959-1.199,1.991-1.199c0.852,0,1.511,0.528,1.787,1.307h0.024
			c0.432-0.779,1.091-1.307,2.099-1.307c0.804,0,2.075,0.516,2.075,2.758V-6z"/>
		<path d="M187.507-6h-0.984v-3.778c0-1.271-0.456-2.087-1.439-2.087c-0.804,0-1.535,0.755-1.535,1.751V-6h-0.983v-4.03
			c0-1.043-0.444-1.835-1.367-1.835c-0.852,0-1.607,0.839-1.607,1.859V-6h-0.983v-4.857c0-0.671-0.024-1.151-0.048-1.691h0.875
			l0.06,1.055h0.036c0.36-0.635,0.959-1.199,1.991-1.199c0.852,0,1.511,0.528,1.787,1.307h0.024
			c0.432-0.779,1.091-1.307,2.099-1.307c0.804,0,2.075,0.516,2.075,2.758V-6z"/>
		<path d="M194.615-15.235c-0.036,0.132-0.156,0.204-0.396,0.192c-0.419,1.955-0.635,4.102-0.635,5.397
			c0,0.899,0.036,1.811,0.156,2.375c0.228-0.587,0.744-1.847,0.912-2.267l0.503,0.528c-0.492,1.211-0.852,1.895-1.02,2.435
			c-0.06,0.204-0.096,0.396-0.096,0.563c0,0.132,0.024,0.252,0.06,0.372l-0.852,0.156c-0.384-1.139-0.528-2.531-0.528-4.125
			c0-1.571,0.252-3.766,0.636-5.841L194.615-15.235z M202.254-6.468c-0.432,0.024-0.875,0.036-1.319,0.036
			c-0.852,0-1.655-0.048-2.23-0.132c-1.475-0.216-2.159-1.032-2.159-1.991c0-0.828,0.456-1.523,1.127-2.314l0.78,0.335
			c-0.6,0.624-1.02,1.2-1.02,1.883c0,1.391,2.039,1.391,3.286,1.391c0.504,0,1.043-0.024,1.547-0.06L202.254-6.468z M196.702-13.796
			c1.547-0.036,3.634-0.18,5.229-0.456l0.072,0.839c-1.487,0.252-3.897,0.408-5.277,0.444L196.702-13.796z"/>
		<path d="M208.534-15.775c-0.036,0.096-0.156,0.192-0.372,0.204c-0.083,0.528-0.191,1.151-0.3,1.619
			c1.176-0.072,2.483-0.276,3.526-0.588l0.132,0.816c-1.115,0.276-2.435,0.468-3.814,0.576c-0.576,2.303-1.367,4.174-2.542,5.9
			l-0.804-0.324c1.091-1.571,1.919-3.37,2.435-5.553h-2.387v-0.78h1.427c0.372,0,0.756-0.012,1.104-0.012
			c0.144-0.636,0.252-1.319,0.336-2.027L208.534-15.775z M211.724-10.666c0.012,0.972,0.084,1.631,0.156,2.459
			c0.768,0.3,1.763,0.815,2.555,1.391l-0.432,0.768c-0.659-0.504-1.475-0.972-2.123-1.259c0,1.199-0.48,2.135-2.243,2.135
			c-1.332,0-2.351-0.6-2.339-1.727c0-1.199,1.259-1.775,2.363-1.775c0.432,0,0.875,0.084,1.355,0.216
			c-0.048-0.768-0.108-1.547-0.108-2.111L211.724-10.666z M211.064-7.667c-0.492-0.192-0.996-0.276-1.427-0.276
			c-0.72,0-1.571,0.288-1.583,1.031c0,0.684,0.672,1.008,1.607,1.008c0.863,0,1.415-0.42,1.415-1.211
			C211.076-7.307,211.076-7.488,211.064-7.667z M214.351-11.901c-1.355,0.012-2.999,0.228-4.246,0.588l-0.132-0.756
			c1.368-0.396,3.022-0.647,4.33-0.647L214.351-11.901z"/>
		<path d="M219.97-10.858c0.791-0.408,2.026-0.695,2.974-0.695c1.907,0,3.106,1.115,3.106,2.878c0,2.17-1.906,3.37-4.317,3.37
			c-1.559,0-2.626-0.624-2.626-1.679c0-0.888,0.875-1.607,1.967-1.607c1.354,0,2.267,1.079,2.446,2.17
			c0.959-0.36,1.655-1.127,1.655-2.243c0-1.295-0.96-2.123-2.471-2.123c-1.799,0-3.562,0.803-4.354,1.571
			c-0.36,0.336-0.828,0.84-1.151,1.211l-0.612-0.612c1.08-1.127,4.509-4.401,6.14-5.925c-0.695,0.096-3.094,0.192-4.461,0.24
			c-0.036,0.084-0.156,0.156-0.252,0.18l-0.096-1.02c1.619-0.012,4.713-0.132,5.589-0.264l0.18-0.084l0.636,0.78
			c-0.061,0.048-0.168,0.096-0.288,0.108c-0.852,0.695-3.13,2.83-4.065,3.73V-10.858z M221.625-6.06c0.359,0,0.779-0.048,1.091-0.12
			c-0.132-0.924-0.815-1.703-1.703-1.703c-0.624,0-1.175,0.335-1.175,0.887C219.838-6.264,220.833-6.06,221.625-6.06z"/>
		<path d="M237.476-6.06c-1.031-0.815-2.339-1.595-3.599-2.003c0.024,0.468-0.06,1.08-0.155,1.392
			c-0.096,0.995-1.02,1.379-2.123,1.379c-1.547,0-2.771-0.755-2.782-1.967c-0.024-1.211,1.247-1.955,2.758-1.967
			c0.42,0,0.96,0.024,1.403,0.108c0-0.324-0.06-0.6-0.071-0.875c-0.108-1.571-0.204-4.09-0.216-5.817l1.247,0.072
			c0,0.12-0.108,0.228-0.312,0.252c-0.013,0.324,0,1.907,0,2.267c0.779,0,2.53-0.132,3.981-0.384l0.084,0.852
			c-1.367,0.216-3.143,0.336-4.054,0.348c0,0.684,0.023,0.959,0.204,3.442c1.547,0.456,3.01,1.271,4.186,2.135L237.476-6.06z
			 M231.551-8.507c-1.151,0.024-1.955,0.504-1.955,1.188c0,0.875,0.947,1.259,1.907,1.259c0.839,0,1.535-0.3,1.535-1.151
			c0-0.276,0-0.768-0.024-1.115C232.534-8.471,232.007-8.507,231.551-8.507z"/>
		<path d="M241.404-11.709c1.799-0.492,4.065-0.983,4.965-0.983c1.799,0,2.854,0.959,2.854,2.734v0.096
			c-0.024,2.183-1.739,3.778-5.182,4.701c-0.107-0.204-0.359-0.527-0.539-0.731c3.07-0.731,4.81-2.171,4.81-3.994
			c0-1.151-0.552-1.979-1.979-1.979c-0.959,0-2.866,0.432-4.342,0.947c0.013,0.096-0.107,0.216-0.228,0.276L241.404-11.709z
			 M243.083-15.859c1.643,0.144,3.538,0.492,4.821,0.935l-0.252,0.84c-1.271-0.432-3.214-0.828-4.773-0.959L243.083-15.859z"/>
		<path d="M254.615-15.235c-0.036,0.132-0.156,0.204-0.396,0.192c-0.42,1.955-0.636,4.102-0.636,5.397
			c0,0.899,0.036,1.811,0.155,2.375c0.229-0.587,0.744-1.847,0.912-2.267l0.504,0.528c-0.492,1.211-0.852,1.895-1.02,2.435
			c-0.061,0.204-0.097,0.396-0.097,0.563c0,0.132,0.024,0.252,0.061,0.372l-0.852,0.156c-0.384-1.139-0.527-2.531-0.527-4.125
			c0-1.571,0.251-3.766,0.635-5.841L254.615-15.235z M262.255-6.468c-0.432,0.024-0.875,0.036-1.319,0.036
			c-0.852,0-1.655-0.048-2.23-0.132c-1.476-0.216-2.159-1.032-2.159-1.991c0-0.828,0.456-1.523,1.128-2.314l0.779,0.335
			c-0.6,0.624-1.02,1.2-1.02,1.883c0,1.391,2.039,1.391,3.286,1.391c0.504,0,1.044-0.024,1.547-0.06L262.255-6.468z M256.702-13.796
			c1.547-0.036,3.634-0.18,5.229-0.456l0.071,0.839c-1.487,0.252-3.897,0.408-5.277,0.444L256.702-13.796z"/>
		<path d="M267.814-15.607c-0.023,0.144-0.132,0.228-0.372,0.264c-0.096,1.391-0.216,4.569-0.216,6.344
			c0,1.787,0.888,2.651,2.399,2.651c1.463,0,2.95-0.732,4.317-2.279c0.12,0.192,0.396,0.576,0.539,0.708
			c-1.402,1.595-3.105,2.435-4.869,2.435c-2.183,0-3.298-1.259-3.298-3.526c0-1.511,0.107-5.229,0.191-6.705L267.814-15.607z"/>
		<path d="M276.444-14.504c0.899-0.036,8.287-0.563,9.847-0.576l0.012,0.899c-0.155-0.012-0.3-0.012-0.443-0.012
			c-0.695,0-1.283,0.12-2.051,0.612c-1.799,1.079-3.538,3.01-3.538,4.557c0,1.679,1.175,2.675,4.149,3.059l-0.396,0.839
			c-3.406-0.492-4.678-1.763-4.678-3.898c0-1.691,1.667-3.742,3.862-5.121c-1.271,0.084-4.857,0.36-6.405,0.504
			c-0.035,0.096-0.167,0.18-0.264,0.192L276.444-14.504z"/>
		<path d="M289.932-14.504c-0.024,0.108-0.156,0.18-0.324,0.192c-0.144,0.899-0.228,1.979-0.228,2.986
			c0,0.444,0.024,0.875,0.048,1.259c0.144,2.039,0.972,3.274,1.896,3.262c0.479,0,1.103-1.223,1.535-2.566
			c0.168,0.168,0.491,0.396,0.695,0.516c-0.552,1.619-1.247,2.938-2.243,2.962c-1.522,0.024-2.578-1.823-2.746-4.125
			c-0.036-0.456-0.048-0.959-0.048-1.5c0-1.055,0.06-2.207,0.18-3.226L289.932-14.504z M297.883-8.927
			c-0.335-2.099-1.403-3.61-3.021-4.51l0.527-0.647c1.751,0.936,3.034,2.663,3.382,4.881L297.883-8.927z"/>
		<path d="M303.971-10.858c0.791-0.408,2.026-0.695,2.974-0.695c1.907,0,3.106,1.115,3.106,2.878c0,2.17-1.906,3.37-4.317,3.37
			c-1.559,0-2.627-0.624-2.627-1.679c0-0.888,0.876-1.607,1.968-1.607c1.354,0,2.267,1.079,2.446,2.17
			c0.959-0.36,1.655-1.127,1.655-2.243c0-1.295-0.96-2.123-2.471-2.123c-1.799,0-3.563,0.803-4.354,1.571
			c-0.36,0.336-0.828,0.84-1.151,1.211l-0.612-0.612c1.08-1.127,4.51-4.401,6.141-5.925c-0.695,0.096-3.094,0.192-4.461,0.24
			c-0.036,0.084-0.156,0.156-0.252,0.18l-0.096-1.02c1.619-0.012,4.713-0.132,5.589-0.264l0.18-0.084l0.636,0.78
			c-0.061,0.048-0.168,0.096-0.288,0.108c-0.852,0.695-3.13,2.83-4.065,3.73V-10.858z M305.626-6.06c0.359,0,0.779-0.048,1.091-0.12
			c-0.132-0.924-0.815-1.703-1.703-1.703c-0.623,0-1.175,0.335-1.175,0.887C303.839-6.264,304.834-6.06,305.626-6.06z"/>
		<path d="M315.239-6.66c0,0.923-0.756,1.679-1.68,1.679c-0.923,0-1.679-0.756-1.679-1.679s0.756-1.679,1.679-1.679
			C314.507-8.339,315.239-7.559,315.239-6.66z M314.807-6.66c0-0.696-0.551-1.247-1.247-1.247c-0.684,0-1.235,0.551-1.235,1.247
			c0,0.684,0.552,1.235,1.235,1.235C314.279-5.425,314.807-6,314.807-6.66z"/>
		<path d="M326.579-6v-8.047h-0.023l-1.476,0.852l-0.24-0.744l1.859-1.043h0.852V-6H326.579z"/>
		<path d="M339.956-6h-0.983v-3.778c0-1.271-0.456-2.087-1.439-2.087c-0.804,0-1.535,0.755-1.535,1.751V-6h-0.983v-4.03
			c0-1.043-0.444-1.835-1.367-1.835c-0.852,0-1.607,0.839-1.607,1.859V-6h-0.983v-4.857c0-0.671-0.024-1.151-0.048-1.691h0.875
			l0.061,1.055h0.036c0.359-0.635,0.959-1.199,1.99-1.199c0.852,0,1.512,0.528,1.787,1.307h0.024
			c0.432-0.779,1.091-1.307,2.099-1.307c0.804,0,2.075,0.516,2.075,2.758V-6z"/>
		<path d="M350.792-6h-0.983v-3.778c0-1.271-0.456-2.087-1.439-2.087c-0.804,0-1.535,0.755-1.535,1.751V-6h-0.983v-4.03
			c0-1.043-0.444-1.835-1.367-1.835c-0.852,0-1.607,0.839-1.607,1.859V-6h-0.983v-4.857c0-0.671-0.024-1.151-0.048-1.691h0.875
			l0.061,1.055h0.036c0.359-0.635,0.959-1.199,1.99-1.199c0.852,0,1.512,0.528,1.787,1.307h0.024
			c0.432-0.779,1.091-1.307,2.099-1.307c0.804,0,2.075,0.516,2.075,2.758V-6z"/>
		<path d="M359.277-10.606h-6.992v-0.72h6.992V-10.606z M359.277-7.979h-6.992v-0.72h6.992V-7.979z"/>
		<path d="M363.599-10.858c1.056,0.18,1.955,1.032,1.955,2.327c0,1.427-1.031,2.675-3.046,2.675c-0.899,0-1.716-0.288-2.123-0.576
			l0.3-0.768c0.324,0.216,1.043,0.54,1.835,0.54c1.511,0,2.003-1.055,2.003-1.883c0-1.319-1.115-1.919-2.291-1.919h-0.588v-0.744
			h0.588c0.863,0,1.979-0.54,1.979-1.667c0-0.78-0.468-1.451-1.548-1.451c-0.659,0-1.283,0.324-1.643,0.587l-0.3-0.731
			c0.432-0.336,1.271-0.672,2.135-0.672c1.643,0,2.375,1.043,2.375,2.123c0,0.923-0.588,1.751-1.632,2.123V-10.858z"/>
		<path d="M368.364-11.433c0.456-0.804,1.211-1.259,2.23-1.259c1.548,0,2.663,1.332,2.663,3.334c0,2.398-1.403,3.502-2.843,3.502
			c-0.863,0-1.583-0.396-1.967-1.043h-0.024v3.574h-0.995v-7.112c0-0.852-0.023-1.511-0.048-2.111h0.899l0.06,1.115H368.364z
			 M368.424-8.603c0,1.271,0.948,1.943,1.835,1.943c1.284,0,1.991-1.104,1.991-2.663c0-1.355-0.684-2.555-1.955-2.555
			c-1.115,0-1.871,1.08-1.871,2.027V-8.603z"/>
		<path d="M379.45-12.537l-2.159,3.167L379.51-6h-1.139l-0.983-1.523c-0.24-0.396-0.456-0.756-0.696-1.176h-0.023
			c-0.204,0.408-0.444,0.768-0.696,1.176L375.013-6h-1.104l2.243-3.334l-2.135-3.203h1.115l0.947,1.451
			c0.24,0.372,0.443,0.708,0.659,1.092h0.036c0.204-0.384,0.432-0.744,0.66-1.092l0.923-1.451H379.45z"/>
		<path d="M382.44-8.507h-0.899c-0.049-0.443-0.049-0.492-0.049-0.635c0-0.672,0.24-1.392,0.816-2.123
			c0.636-0.768,0.971-1.307,0.971-1.967c0-0.744-0.455-1.248-1.319-1.248c-0.468,0-0.983,0.168-1.307,0.42l-0.288-0.731
			c0.42-0.3,1.14-0.516,1.799-0.516c1.487,0,2.159,0.948,2.159,1.967c0,0.899-0.516,1.583-1.151,2.375
			c-0.516,0.66-0.756,1.188-0.756,1.811c0,0.096,0,0.192,0.012,0.288L382.44-8.507z M381.265-6.612
			c0.012-0.443,0.288-0.768,0.708-0.768c0.432,0,0.707,0.324,0.707,0.768c0,0.42-0.275,0.756-0.707,0.756
			C381.517-5.856,381.265-6.216,381.265-6.612z"/>
	</g>
	<rect x="11" y="12" style="fill:none;stroke:#808080;stroke-width:1.4052;stroke-miterlimit:10;" width="432" height="316"/>
	<g>
		<g>
			<path style="fill:none;stroke:#FFFFFF;stroke-width:5.1082;stroke-linejoin:round;stroke-miterlimit:10;" d="M159.639,348.264
				c-0.086,0.173-0.281,0.281-0.605,0.26c-0.541,1.384-1.167,2.789-1.859,4.13l0.8,0.216c-0.043,0.194-0.195,0.346-0.563,0.368
				v14.378h-2.508v-11.113c-0.605,0.887-1.232,1.708-1.881,2.422c-0.238-0.649-0.865-1.989-1.232-2.616
				c1.903-2.012,3.827-5.579,4.973-9.038L159.639,348.264z M172.375,360.048h-4.324c1.275,1.902,3.157,3.697,4.995,4.757
				c-0.584,0.497-1.427,1.427-1.838,2.075c-1.6-1.146-3.179-2.919-4.454-4.864v5.578h-2.595v-5.448
				c-1.34,1.924-2.984,3.589-4.713,4.691c-0.389-0.648-1.211-1.578-1.795-2.075c1.968-1.017,3.892-2.79,5.254-4.714h-4.476v-2.356
				h5.73v-1.925h-4.281v-7.61h11.459v7.61h-4.583v1.925h5.622V360.048z M162.342,350.426v3.049h6.422v-3.049H162.342z"/>
			<path style="fill:none;stroke:#FFFFFF;stroke-width:5.1082;stroke-linejoin:round;stroke-miterlimit:10;" d="M193.697,352.503
				h-11.546c-0.692,1.514-1.514,3.005-2.508,4.41l0.346,0.087c-0.043,0.194-0.216,0.367-0.584,0.39v10.205h-2.595V360.2
				c-0.605,0.562-1.254,1.081-1.946,1.557c-0.259-0.735-0.908-1.881-1.297-2.529c2.335-1.579,4.216-4.001,5.579-6.725h-4.822v-2.486
				h5.903c0.367-0.952,0.67-1.903,0.908-2.833l3.2,0.844c-0.108,0.216-0.324,0.324-0.605,0.303
				c-0.173,0.562-0.368,1.124-0.562,1.687h10.53V352.503z M194.021,359.68v2.422h-5.146v2.725c0,2.378-0.886,2.768-5.103,2.768
				c-0.086-0.757-0.411-1.795-0.713-2.508c0.692,0.043,1.448,0.064,2.011,0.064c1.016,0,1.167-0.021,1.167-0.389v-2.66h-5.535
				v-2.422h5.535v-1.794l0.778,0.021c0.497-0.39,1.038-0.865,1.514-1.362h-6.141v-2.335h8.433l0.411-0.13l1.989,1.232
				c-0.108,0.151-0.281,0.216-0.519,0.26c-0.995,1.081-2.422,2.486-3.827,3.524v0.583H194.021z"/>
			<path style="fill:none;stroke:#FFFFFF;stroke-width:5.1082;stroke-linejoin:round;stroke-miterlimit:10;" d="M197.462,366.362
				c-0.605-1.665-0.887-5.298-0.887-8.26c0-3.156,0.476-6.422,1.103-9.794l3.395,0.648c-0.043,0.216-0.325,0.389-0.605,0.433
				c-1.319,4.691-1.319,8.021-1.319,10.508c0,0.735,0,1.405,0.064,1.772c0.303-0.843,0.995-2.616,1.341-3.438l1.405,1.795
				c-0.562,1.081-1.362,2.897-1.794,4.107c-0.151,0.39-0.216,0.735-0.216,1.146c0,0.281,0.021,0.584,0.108,0.93L197.462,366.362z
				 M203.213,353.021c1.579,0.065,3.179,0,4.757-0.064c-0.086-1.687-0.151-3.157-0.173-4.757l3.438,0.108
				c-0.043,0.216-0.195,0.41-0.541,0.476l0.021,3.956c1.47-0.173,2.724-0.432,3.762-0.734l0.216,2.638
				c-0.951,0.281-2.313,0.497-3.892,0.605c0.065,1.945,0.173,3.935,0.259,5.34c1.492,0.649,2.941,1.535,4.022,2.487l-1.405,2.551
				c-0.692-0.757-1.579-1.492-2.53-2.054c-0.281,2.746-2.271,3.2-4.108,3.2c-2.659,0-4.259-1.449-4.259-3.46
				c0-2.271,2.097-3.524,4.303-3.524c0.411,0,0.843,0.043,1.297,0.108c-0.087-1.146-0.173-2.876-0.26-4.454
				c-0.627,0.043-1.384,0.064-1.859,0.064h-3.005L203.213,353.021z M208.596,362.254c-0.432-0.151-1.016-0.259-1.492-0.259
				c-1.06,0-2.076,0.346-2.076,1.275c0,0.821,0.908,1.232,2.011,1.232c1.06,0,1.6-0.648,1.579-1.644
				C208.618,362.708,208.618,362.448,208.596,362.254z"/>
			<path style="fill:none;stroke:#FFFFFF;stroke-width:5.1082;stroke-linejoin:round;stroke-miterlimit:10;" d="M231.563,352.113
				c-0.584-0.303-1.601-0.713-2.963-0.713c-1.687,0-2.443,0.908-2.443,1.838c0,1.188,0.822,1.729,2.854,2.659
				c2.659,1.189,3.849,2.725,3.849,4.908c0,2.897-2.184,5.016-6.054,5.016c-1.644,0-3.309-0.454-4.087-0.93l0.627-2.681
				c0.865,0.519,2.249,0.93,3.589,0.93c1.773,0,2.703-0.844,2.703-2.076c0-1.188-0.8-1.902-2.638-2.702
				c-2.508-1.081-4.065-2.638-4.065-4.8c0-2.725,2.141-4.822,5.73-4.822c1.578,0,2.789,0.368,3.567,0.757L231.563,352.113z"/>
			<path style="fill:none;stroke:#FFFFFF;stroke-width:5.1082;stroke-linejoin:round;stroke-miterlimit:10;" d="M247.391,348.978
				l-5.06,16.627h-3.654l-4.821-16.627h3.503l1.881,7.352c0.497,1.967,0.994,3.956,1.341,5.967h0.064
				c0.367-1.988,0.865-4.021,1.384-5.967l1.925-7.352H247.391z"/>
			<path style="fill:none;stroke:#FFFFFF;stroke-width:5.1082;stroke-linejoin:round;stroke-miterlimit:10;" d="M261.122,364.957
				c-0.973,0.367-2.854,0.821-4.735,0.821c-2.529,0-4.454-0.648-5.859-2.032c-1.427-1.405-2.249-3.676-2.249-6.313
				c0-5.622,3.741-8.627,8.52-8.627c1.687,0,3.092,0.303,3.892,0.691l-0.67,2.638c-0.757-0.346-1.708-0.605-3.179-0.605
				c-2.962,0-5.211,1.816-5.211,5.838c0,3.849,2.055,5.795,4.8,5.795c0.779,0,1.362-0.108,1.644-0.237v-4.065h-2.399v-2.529h5.448
				V364.957z"/>
			<path style="fill:none;stroke:#FFFFFF;stroke-width:5.1082;stroke-linejoin:round;stroke-miterlimit:10;" d="M269.492,349.842
				c0.67,0,1.665-0.021,2.271-0.064c2.486-0.173,11.827-0.757,15.48-0.93l0.044,2.919c-1.925-0.064-2.984,0.108-4.692,1.319
				c-2.378,1.578-5.318,4.562-5.318,7.026s2.184,3.893,6.919,4.39l-1.341,2.702c-6.141-0.734-8.563-3.329-8.563-7.07
				c0-2.638,2.422-6.054,5.665-8.324c-2.681,0.238-7.676,0.627-9.665,0.844c-0.043,0.173-0.324,0.324-0.519,0.367L269.492,349.842z
				 M283.936,354.989c0.93,0.757,2.054,2.011,2.638,2.919l-1.275,1.017c-0.476-0.844-1.773-2.292-2.552-2.963L283.936,354.989z
				 M286.509,353.064c0.973,0.779,2.075,1.946,2.638,2.897l-1.254,0.995c-0.498-0.8-1.708-2.228-2.573-2.94L286.509,353.064z"/>
			<path style="fill:none;stroke:#FFFFFF;stroke-width:5.1082;stroke-linejoin:round;stroke-miterlimit:10;" d="M298.079,363.767
				c0-1.146,0.93-2.098,2.075-2.098c1.146,0,2.055,0.952,2.055,2.098c0,1.168-0.908,2.098-2.055,2.098
				C298.966,365.865,298.079,364.891,298.079,363.767z M298.944,360.091l-0.54-11.135h3.589l-0.519,11.135H298.944z"/>
		</g>
		<g>
			<path style="fill:#FF0000;" d="M159.639,348.264c-0.086,0.173-0.281,0.281-0.605,0.26c-0.541,1.384-1.167,2.789-1.859,4.13
				l0.8,0.216c-0.043,0.194-0.195,0.346-0.563,0.368v14.378h-2.508v-11.113c-0.605,0.887-1.232,1.708-1.881,2.422
				c-0.238-0.649-0.865-1.989-1.232-2.616c1.903-2.012,3.827-5.579,4.973-9.038L159.639,348.264z M172.375,360.048h-4.324
				c1.275,1.902,3.157,3.697,4.995,4.757c-0.584,0.497-1.427,1.427-1.838,2.075c-1.6-1.146-3.179-2.919-4.454-4.864v5.578h-2.595
				v-5.448c-1.34,1.924-2.984,3.589-4.713,4.691c-0.389-0.648-1.211-1.578-1.795-2.075c1.968-1.017,3.892-2.79,5.254-4.714h-4.476
				v-2.356h5.73v-1.925h-4.281v-7.61h11.459v7.61h-4.583v1.925h5.622V360.048z M162.342,350.426v3.049h6.422v-3.049H162.342z"/>
			<path style="fill:#FF0000;" d="M193.697,352.503h-11.546c-0.692,1.514-1.514,3.005-2.508,4.41l0.346,0.087
				c-0.043,0.194-0.216,0.367-0.584,0.39v10.205h-2.595V360.2c-0.605,0.562-1.254,1.081-1.946,1.557
				c-0.259-0.735-0.908-1.881-1.297-2.529c2.335-1.579,4.216-4.001,5.579-6.725h-4.822v-2.486h5.903
				c0.367-0.952,0.67-1.903,0.908-2.833l3.2,0.844c-0.108,0.216-0.324,0.324-0.605,0.303c-0.173,0.562-0.368,1.124-0.562,1.687
				h10.53V352.503z M194.021,359.68v2.422h-5.146v2.725c0,2.378-0.886,2.768-5.103,2.768c-0.086-0.757-0.411-1.795-0.713-2.508
				c0.692,0.043,1.448,0.064,2.011,0.064c1.016,0,1.167-0.021,1.167-0.389v-2.66h-5.535v-2.422h5.535v-1.794l0.778,0.021
				c0.497-0.39,1.038-0.865,1.514-1.362h-6.141v-2.335h8.433l0.411-0.13l1.989,1.232c-0.108,0.151-0.281,0.216-0.519,0.26
				c-0.995,1.081-2.422,2.486-3.827,3.524v0.583H194.021z"/>
			<path style="fill:#FF0000;" d="M197.462,366.362c-0.605-1.665-0.887-5.298-0.887-8.26c0-3.156,0.476-6.422,1.103-9.794
				l3.395,0.648c-0.043,0.216-0.325,0.389-0.605,0.433c-1.319,4.691-1.319,8.021-1.319,10.508c0,0.735,0,1.405,0.064,1.772
				c0.303-0.843,0.995-2.616,1.341-3.438l1.405,1.795c-0.562,1.081-1.362,2.897-1.794,4.107c-0.151,0.39-0.216,0.735-0.216,1.146
				c0,0.281,0.021,0.584,0.108,0.93L197.462,366.362z M203.213,353.021c1.579,0.065,3.179,0,4.757-0.064
				c-0.086-1.687-0.151-3.157-0.173-4.757l3.438,0.108c-0.043,0.216-0.195,0.41-0.541,0.476l0.021,3.956
				c1.47-0.173,2.724-0.432,3.762-0.734l0.216,2.638c-0.951,0.281-2.313,0.497-3.892,0.605c0.065,1.945,0.173,3.935,0.259,5.34
				c1.492,0.649,2.941,1.535,4.022,2.487l-1.405,2.551c-0.692-0.757-1.579-1.492-2.53-2.054c-0.281,2.746-2.271,3.2-4.108,3.2
				c-2.659,0-4.259-1.449-4.259-3.46c0-2.271,2.097-3.524,4.303-3.524c0.411,0,0.843,0.043,1.297,0.108
				c-0.087-1.146-0.173-2.876-0.26-4.454c-0.627,0.043-1.384,0.064-1.859,0.064h-3.005L203.213,353.021z M208.596,362.254
				c-0.432-0.151-1.016-0.259-1.492-0.259c-1.06,0-2.076,0.346-2.076,1.275c0,0.821,0.908,1.232,2.011,1.232
				c1.06,0,1.6-0.648,1.579-1.644C208.618,362.708,208.618,362.448,208.596,362.254z"/>
			<path style="fill:#FF0000;" d="M231.563,352.113c-0.584-0.303-1.601-0.713-2.963-0.713c-1.687,0-2.443,0.908-2.443,1.838
				c0,1.188,0.822,1.729,2.854,2.659c2.659,1.189,3.849,2.725,3.849,4.908c0,2.897-2.184,5.016-6.054,5.016
				c-1.644,0-3.309-0.454-4.087-0.93l0.627-2.681c0.865,0.519,2.249,0.93,3.589,0.93c1.773,0,2.703-0.844,2.703-2.076
				c0-1.188-0.8-1.902-2.638-2.702c-2.508-1.081-4.065-2.638-4.065-4.8c0-2.725,2.141-4.822,5.73-4.822
				c1.578,0,2.789,0.368,3.567,0.757L231.563,352.113z"/>
			<path style="fill:#FF0000;" d="M247.391,348.978l-5.06,16.627h-3.654l-4.821-16.627h3.503l1.881,7.352
				c0.497,1.967,0.994,3.956,1.341,5.967h0.064c0.367-1.988,0.865-4.021,1.384-5.967l1.925-7.352H247.391z"/>
			<path style="fill:#FF0000;" d="M261.122,364.957c-0.973,0.367-2.854,0.821-4.735,0.821c-2.529,0-4.454-0.648-5.859-2.032
				c-1.427-1.405-2.249-3.676-2.249-6.313c0-5.622,3.741-8.627,8.52-8.627c1.687,0,3.092,0.303,3.892,0.691l-0.67,2.638
				c-0.757-0.346-1.708-0.605-3.179-0.605c-2.962,0-5.211,1.816-5.211,5.838c0,3.849,2.055,5.795,4.8,5.795
				c0.779,0,1.362-0.108,1.644-0.237v-4.065h-2.399v-2.529h5.448V364.957z"/>
			<path style="fill:#FF0000;" d="M269.492,349.842c0.67,0,1.665-0.021,2.271-0.064c2.486-0.173,11.827-0.757,15.48-0.93
				l0.044,2.919c-1.925-0.064-2.984,0.108-4.692,1.319c-2.378,1.578-5.318,4.562-5.318,7.026s2.184,3.893,6.919,4.39l-1.341,2.702
				c-6.141-0.734-8.563-3.329-8.563-7.07c0-2.638,2.422-6.054,5.665-8.324c-2.681,0.238-7.676,0.627-9.665,0.844
				c-0.043,0.173-0.324,0.324-0.519,0.367L269.492,349.842z M283.936,354.989c0.93,0.757,2.054,2.011,2.638,2.919l-1.275,1.017
				c-0.476-0.844-1.773-2.292-2.552-2.963L283.936,354.989z M286.509,353.064c0.973,0.779,2.075,1.946,2.638,2.897l-1.254,0.995
				c-0.498-0.8-1.708-2.228-2.573-2.94L286.509,353.064z"/>
			<path style="fill:#FF0000;" d="M298.079,363.767c0-1.146,0.93-2.098,2.075-2.098c1.146,0,2.055,0.952,2.055,2.098
				c0,1.168-0.908,2.098-2.055,2.098C298.966,365.865,298.079,364.891,298.079,363.767z M298.944,360.091l-0.54-11.135h3.589
				l-0.519,11.135H298.944z"/>
		</g>
	</g>
</g>
<g id="&#x30EC;&#x30A4;&#x30E4;&#x30FC;_1">
	<circle style="fill:#FBB03B;" cx="132.732" cy="139.461" r="100.127"/>
	<circle cx="184.418" cy="113.333" r="22"/>
	<circle cx="85.418" cy="113.333" r="22"/>
	<path style="fill:#ED1C24;" d="M195.565,175c0,18-28.131,31.667-62.833,31.667S69.9,193,69.9,175c0-17,28.131,0,62.833,0
		S195.565,158,195.565,175z"/>
	<polygon style="fill:#FCEE21;" points="355.975,180.955 389.709,214.926 436.817,206.395 414.933,248.975 437.604,291.141 
		390.345,283.487 357.248,318.078 349.924,270.767 306.799,249.979 349.531,228.394 	"/>
	<polygon style="fill:#FCEE21;" points="290.913,277.445 265.733,253.62 231.833,260.856 246.71,229.547 229.352,199.541 
		263.727,204.015 286.9,178.235 293.267,212.309 324.947,226.382 294.507,242.967 	"/>
	<polygon style="fill:#FCEE21;" points="329.528,322.861 310.419,315.076 293.173,326.404 294.672,305.824 278.569,292.923 
		298.604,287.989 305.898,268.687 316.782,286.217 337.393,287.19 324.084,302.958 	"/>
</g>
</svg>
